<mxfile host="app.diagrams.net" modified="2020-10-25T15:38:58.397Z" agent="5.0 (Windows)" etag="88WsYDZ9AgSvJ0zFCQAU" version="13.8.2" type="github">
  <diagram id="hc9EMMiAokFVV4D4Sd0b" name="Page-1">
    <mxGraphModel dx="569" dy="320" grid="1" gridSize="10" guides="1" tooltips="1" connect="1" arrows="1" fold="1" page="1" pageScale="1" pageWidth="827" pageHeight="1169" math="0" shadow="0">
      <root>
        <mxCell id="0" />
        <mxCell id="1" parent="0" />
        <mxCell id="tbtSMGsqEWslULZVBBSR-1" value="" style="rounded=0;whiteSpace=wrap;html=1;align=left;" parent="1" vertex="1">
          <mxGeometry x="77.25" y="675" width="440" height="130" as="geometry" />
        </mxCell>
        <mxCell id="tbtSMGsqEWslULZVBBSR-2" value="GameLogic" style="rounded=0;whiteSpace=wrap;html=1;" parent="1" vertex="1">
          <mxGeometry x="77.25" y="675" width="440" height="50" as="geometry" />
        </mxCell>
        <mxCell id="tbtSMGsqEWslULZVBBSR-5" value="" style="rounded=0;whiteSpace=wrap;html=1;" parent="1" vertex="1">
          <mxGeometry x="77.25" y="805" width="440" height="130" as="geometry" />
        </mxCell>
        <mxCell id="tbtSMGsqEWslULZVBBSR-6" value="- playerTurns : integer " style="text;html=1;align=center;verticalAlign=middle;resizable=0;points=[];autosize=1;" parent="1" vertex="1">
          <mxGeometry x="77.25" y="770" width="130" height="20" as="geometry" />
        </mxCell>
        <mxCell id="tbtSMGsqEWslULZVBBSR-10" value="+ getLocationsToSlide() : slideCoords[][]" style="text;html=1;align=center;verticalAlign=middle;resizable=0;points=[];autosize=1;" parent="1" vertex="1">
          <mxGeometry x="77.25" y="835" width="230" height="20" as="geometry" />
        </mxCell>
        <mxCell id="tbtSMGsqEWslULZVBBSR-11" value="+ getPossibleMoveDir() : string" style="text;html=1;align=center;verticalAlign=middle;resizable=0;points=[];autosize=1;" parent="1" vertex="1">
          <mxGeometry x="77.25" y="855" width="180" height="20" as="geometry" />
        </mxCell>
        <mxCell id="tbtSMGsqEWslULZVBBSR-12" value="+ getPlayerInventory() : playerInventory[]" style="text;html=1;align=center;verticalAlign=middle;resizable=0;points=[];autosize=1;" parent="1" vertex="1">
          <mxGeometry x="72.25" y="875" width="230" height="20" as="geometry" />
        </mxCell>
        <mxCell id="tbtSMGsqEWslULZVBBSR-13" value="&amp;nbsp;&amp;nbsp;&amp;nbsp;&amp;nbsp;&amp;nbsp;&amp;nbsp; + getPlayableActionTiles() : actionTiles[]&amp;nbsp; " style="text;html=1;align=center;verticalAlign=middle;resizable=0;points=[];autosize=1;" parent="1" vertex="1">
          <mxGeometry x="52.25" y="895" width="260" height="20" as="geometry" />
        </mxCell>
        <mxCell id="tbtSMGsqEWslULZVBBSR-16" value="" style="rounded=0;whiteSpace=wrap;html=1;align=left;" parent="1" vertex="1">
          <mxGeometry x="650" y="285" width="640" height="335" as="geometry" />
        </mxCell>
        <mxCell id="tbtSMGsqEWslULZVBBSR-17" value="GameBoard" style="rounded=0;whiteSpace=wrap;html=1;" parent="1" vertex="1">
          <mxGeometry x="650" y="115" width="640" height="50" as="geometry" />
        </mxCell>
        <mxCell id="tbtSMGsqEWslULZVBBSR-18" value="" style="rounded=0;whiteSpace=wrap;html=1;" parent="1" vertex="1">
          <mxGeometry x="650" y="165" width="640" height="120" as="geometry" />
        </mxCell>
        <mxCell id="tbtSMGsqEWslULZVBBSR-20" value="&amp;nbsp;&amp;nbsp;&amp;nbsp;&amp;nbsp;&amp;nbsp;&amp;nbsp;&amp;nbsp;&amp;nbsp;&amp;nbsp;&amp;nbsp;&amp;nbsp;&amp;nbsp;&amp;nbsp;&amp;nbsp;&amp;nbsp; + getPlayerPosition(player : string) : integer[][]" style="text;html=1;align=center;verticalAlign=middle;resizable=0;points=[];autosize=1;" parent="1" vertex="1">
          <mxGeometry x="600" y="315" width="310" height="20" as="geometry" />
        </mxCell>
        <mxCell id="tbtSMGsqEWslULZVBBSR-24" value="- updatePlayerPos(player : string) : void" style="text;html=1;align=center;verticalAlign=middle;resizable=0;points=[];autosize=1;" parent="1" vertex="1">
          <mxGeometry x="653" y="335" width="230" height="20" as="geometry" />
        </mxCell>
        <mxCell id="tbtSMGsqEWslULZVBBSR-25" value="+ setPlayersPos(player : string, x : integer, y : integer) : void" style="text;html=1;align=center;verticalAlign=middle;resizable=0;points=[];autosize=1;" parent="1" vertex="1">
          <mxGeometry x="653" y="355" width="330" height="20" as="geometry" />
        </mxCell>
        <mxCell id="tbtSMGsqEWslULZVBBSR-26" value="+ setFireCoords(x : integer, y : integer) : void" style="text;html=1;align=center;verticalAlign=middle;resizable=0;points=[];autosize=1;" parent="1" vertex="1">
          <mxGeometry x="653" y="375" width="250" height="20" as="geometry" />
        </mxCell>
        <mxCell id="tbtSMGsqEWslULZVBBSR-27" value="+ setFreezeCoords(x : integer, y : integer) : void" style="text;html=1;align=center;verticalAlign=middle;resizable=0;points=[];autosize=1;" parent="1" vertex="1">
          <mxGeometry x="650" y="395" width="270" height="20" as="geometry" />
        </mxCell>
        <mxCell id="tbtSMGsqEWslULZVBBSR-28" value="+ isPlayerOnGoal() : boolean" style="text;html=1;align=center;verticalAlign=middle;resizable=0;points=[];autosize=1;" parent="1" vertex="1">
          <mxGeometry x="653" y="435" width="170" height="20" as="geometry" />
        </mxCell>
        <mxCell id="tbtSMGsqEWslULZVBBSR-29" value="+ getPlayerTile(player : string) : Tile" style="text;html=1;align=center;verticalAlign=middle;resizable=0;points=[];autosize=1;" parent="1" vertex="1">
          <mxGeometry x="648" y="455" width="210" height="20" as="geometry" />
        </mxCell>
        <mxCell id="tbtSMGsqEWslULZVBBSR-30" value="+ getActionTileLocation() : integer[][]" style="text;html=1;align=center;verticalAlign=middle;resizable=0;points=[];autosize=1;" parent="1" vertex="1">
          <mxGeometry x="648" y="495" width="210" height="20" as="geometry" />
        </mxCell>
        <mxCell id="tbtSMGsqEWslULZVBBSR-31" value="+ getPlayerSlideLocation() : integer[][]" style="text;html=1;align=center;verticalAlign=middle;resizable=0;points=[];autosize=1;" parent="1" vertex="1">
          <mxGeometry x="648" y="515" width="220" height="20" as="geometry" />
        </mxCell>
        <mxCell id="tbtSMGsqEWslULZVBBSR-32" value="- slideTile (x : integer, y : integer) : void" style="text;html=1;align=center;verticalAlign=middle;resizable=0;points=[];autosize=1;" parent="1" vertex="1">
          <mxGeometry x="650" y="535" width="220" height="20" as="geometry" />
        </mxCell>
        <mxCell id="tbtSMGsqEWslULZVBBSR-33" value="- placeAction (x : integer, y : integer) : void" style="text;html=1;align=center;verticalAlign=middle;resizable=0;points=[];autosize=1;" parent="1" vertex="1">
          <mxGeometry x="650" y="575" width="240" height="20" as="geometry" />
        </mxCell>
        <mxCell id="tbtSMGsqEWslULZVBBSR-34" value="- movePlayer(x : Integer, y : Integer) : void" style="text;html=1;align=center;verticalAlign=middle;resizable=0;points=[];autosize=1;" parent="1" vertex="1">
          <mxGeometry x="653" y="595" width="230" height="20" as="geometry" />
        </mxCell>
        <mxCell id="tbtSMGsqEWslULZVBBSR-36" value="+ getGoalTile() : integer[][]" style="text;html=1;align=center;verticalAlign=middle;resizable=0;points=[];autosize=1;" parent="1" vertex="1">
          <mxGeometry x="648" y="475" width="160" height="20" as="geometry" />
        </mxCell>
        <mxCell id="tbtSMGsqEWslULZVBBSR-37" value="- boardCoords : integer[][]" style="text;html=1;align=center;verticalAlign=middle;resizable=0;points=[];autosize=1;" parent="1" vertex="1">
          <mxGeometry x="658" y="175" width="150" height="20" as="geometry" />
        </mxCell>
        <mxCell id="tbtSMGsqEWslULZVBBSR-38" value="- slideCoords : integer[][]" style="text;html=1;align=center;verticalAlign=middle;resizable=0;points=[];autosize=1;" parent="1" vertex="1">
          <mxGeometry x="653" y="195" width="150" height="20" as="geometry" />
        </mxCell>
        <mxCell id="tbtSMGsqEWslULZVBBSR-39" value="- goalCoords : integer[][]" style="text;html=1;align=center;verticalAlign=middle;resizable=0;points=[];autosize=1;" parent="1" vertex="1">
          <mxGeometry x="653" y="215" width="150" height="20" as="geometry" />
        </mxCell>
        <mxCell id="tbtSMGsqEWslULZVBBSR-40" value="- slideCoords : integer[][]" style="text;html=1;align=center;verticalAlign=middle;resizable=0;points=[];autosize=1;" parent="1" vertex="1">
          <mxGeometry x="653" y="235" width="150" height="20" as="geometry" />
        </mxCell>
        <mxCell id="tbtSMGsqEWslULZVBBSR-41" value="+ getAreasActionEffected : integer[][]" style="text;html=1;align=center;verticalAlign=middle;resizable=0;points=[];autosize=1;" parent="1" vertex="1">
          <mxGeometry x="650" y="415" width="210" height="20" as="geometry" />
        </mxCell>
        <mxCell id="tbtSMGsqEWslULZVBBSR-42" value="- playerLocations : integer[][]" style="text;html=1;align=center;verticalAlign=middle;resizable=0;points=[];autosize=1;" parent="1" vertex="1">
          <mxGeometry x="653" y="255" width="170" height="20" as="geometry" />
        </mxCell>
        <mxCell id="tbtSMGsqEWslULZVBBSR-43" value="+ Gameboard (boardCoords : intege[][], slideCoords : integer[][], goalCoords : integer[][], playerLocations : integer[][]) " style="text;html=1;align=center;verticalAlign=middle;resizable=0;points=[];autosize=1;" parent="1" vertex="1">
          <mxGeometry x="648" y="295" width="650" height="20" as="geometry" />
        </mxCell>
        <mxCell id="tbtSMGsqEWslULZVBBSR-44" value="- gameBoard : GameBoard " style="text;html=1;align=center;verticalAlign=middle;resizable=0;points=[];autosize=1;" parent="1" vertex="1">
          <mxGeometry x="77.25" y="750" width="160" height="20" as="geometry" />
        </mxCell>
        <mxCell id="tbtSMGsqEWslULZVBBSR-45" value="- player : Player" style="text;html=1;align=center;verticalAlign=middle;resizable=0;points=[];autosize=1;" parent="1" vertex="1">
          <mxGeometry x="77.25" y="730" width="100" height="20" as="geometry" />
        </mxCell>
        <mxCell id="tbtSMGsqEWslULZVBBSR-46" value="- incrementTurns() : void " style="text;html=1;align=center;verticalAlign=middle;resizable=0;points=[];autosize=1;" parent="1" vertex="1">
          <mxGeometry x="77.25" y="915" width="150" height="20" as="geometry" />
        </mxCell>
        <mxCell id="tbtSMGsqEWslULZVBBSR-47" value="+ GameLogic (player : Player, gameBoard : GameBoard, playerTurns : integer)" style="text;html=1;align=center;verticalAlign=middle;resizable=0;points=[];autosize=1;" parent="1" vertex="1">
          <mxGeometry x="72.25" y="815" width="440" height="20" as="geometry" />
        </mxCell>
        <mxCell id="tbtSMGsqEWslULZVBBSR-48" value="- removeTile (x : integer, y : integer) : void" style="text;html=1;align=center;verticalAlign=middle;resizable=0;points=[];autosize=1;" parent="1" vertex="1">
          <mxGeometry x="653" y="555" width="230" height="20" as="geometry" />
        </mxCell>
        <mxCell id="tbtSMGsqEWslULZVBBSR-49" value="" style="rounded=0;whiteSpace=wrap;html=1;align=left;" parent="1" vertex="1">
          <mxGeometry x="1119" y="880" width="440" height="135" as="geometry" />
        </mxCell>
        <mxCell id="tbtSMGsqEWslULZVBBSR-50" value="Player" style="rounded=0;whiteSpace=wrap;html=1;" parent="1" vertex="1">
          <mxGeometry x="1119" y="880" width="440" height="50" as="geometry" />
        </mxCell>
        <mxCell id="tbtSMGsqEWslULZVBBSR-51" value="" style="rounded=0;whiteSpace=wrap;html=1;" parent="1" vertex="1">
          <mxGeometry x="1120" y="1015" width="439" height="280" as="geometry" />
        </mxCell>
        <mxCell id="tbtSMGsqEWslULZVBBSR-57" value="- playerInventory : Tile[]" style="text;html=1;align=center;verticalAlign=middle;resizable=0;points=[];autosize=1;" parent="1" vertex="1">
          <mxGeometry x="1121.5" y="935" width="140" height="20" as="geometry" />
        </mxCell>
        <mxCell id="tbtSMGsqEWslULZVBBSR-82" value="" style="rounded=0;whiteSpace=wrap;html=1;align=left;" parent="1" vertex="1">
          <mxGeometry x="1915" y="835" width="440" height="185" as="geometry" />
        </mxCell>
        <mxCell id="tbtSMGsqEWslULZVBBSR-83" value="PlayerProfile" style="rounded=0;whiteSpace=wrap;html=1;" parent="1" vertex="1">
          <mxGeometry x="1915" y="835" width="440" height="50" as="geometry" />
        </mxCell>
        <mxCell id="tbtSMGsqEWslULZVBBSR-84" value="" style="rounded=0;whiteSpace=wrap;html=1;" parent="1" vertex="1">
          <mxGeometry x="1915" y="1000" width="440" height="225" as="geometry" />
        </mxCell>
        <mxCell id="tbtSMGsqEWslULZVBBSR-85" value="- wins : integer[numberOfMaps] " style="text;html=1;align=center;verticalAlign=middle;resizable=0;points=[];autosize=1;" parent="1" vertex="1">
          <mxGeometry x="1912.5" y="930" width="190" height="20" as="geometry" />
        </mxCell>
        <mxCell id="tbtSMGsqEWslULZVBBSR-86" value="- playerIcon : image " style="text;html=1;align=center;verticalAlign=middle;resizable=0;points=[];autosize=1;" parent="1" vertex="1">
          <mxGeometry x="1915" y="910" width="120" height="20" as="geometry" />
        </mxCell>
        <mxCell id="tbtSMGsqEWslULZVBBSR-87" value="- name : string" style="text;html=1;align=center;verticalAlign=middle;resizable=0;points=[];autosize=1;" parent="1" vertex="1">
          <mxGeometry x="1917.5" y="890" width="90" height="20" as="geometry" />
        </mxCell>
        <mxCell id="tbtSMGsqEWslULZVBBSR-88" value="- losses : integer[numberOfMaps] " style="text;html=1;align=center;verticalAlign=middle;resizable=0;points=[];autosize=1;" parent="1" vertex="1">
          <mxGeometry x="1915" y="950" width="200" height="20" as="geometry" />
        </mxCell>
        <mxCell id="tbtSMGsqEWslULZVBBSR-89" value="- mapsPlayed : integer[numberOfMaps] " style="text;html=1;align=center;verticalAlign=middle;resizable=0;points=[];autosize=1;" parent="1" vertex="1">
          <mxGeometry x="1915" y="970" width="230" height="20" as="geometry" />
        </mxCell>
        <mxCell id="tbtSMGsqEWslULZVBBSR-90" value="+ playerProfile (name : string, playerIcon : image)" style="text;html=1;align=center;verticalAlign=middle;resizable=0;points=[];autosize=1;" parent="1" vertex="1">
          <mxGeometry x="1915" y="1000" width="280" height="20" as="geometry" />
        </mxCell>
        <mxCell id="tbtSMGsqEWslULZVBBSR-91" value="+ setName (name : string) : void " style="text;html=1;align=center;verticalAlign=middle;resizable=0;points=[];autosize=1;" parent="1" vertex="1">
          <mxGeometry x="1915" y="1020" width="190" height="20" as="geometry" />
        </mxCell>
        <mxCell id="tbtSMGsqEWslULZVBBSR-92" value="+ setIcon (icon : image) : void " style="text;html=1;align=center;verticalAlign=middle;resizable=0;points=[];autosize=1;" parent="1" vertex="1">
          <mxGeometry x="1917.5" y="1040" width="170" height="20" as="geometry" />
        </mxCell>
        <mxCell id="tbtSMGsqEWslULZVBBSR-93" value="+ getName () : string " style="text;html=1;align=center;verticalAlign=middle;resizable=0;points=[];autosize=1;" parent="1" vertex="1">
          <mxGeometry x="1912.5" y="1060" width="130" height="20" as="geometry" />
        </mxCell>
        <mxCell id="tbtSMGsqEWslULZVBBSR-94" value="+ getIcon () : image " style="text;html=1;align=center;verticalAlign=middle;resizable=0;points=[];autosize=1;" parent="1" vertex="1">
          <mxGeometry x="1912.5" y="1080" width="120" height="20" as="geometry" />
        </mxCell>
        <mxCell id="tbtSMGsqEWslULZVBBSR-95" value="+ getWins (map : integer) : integer " style="text;html=1;align=center;verticalAlign=middle;resizable=0;points=[];autosize=1;" parent="1" vertex="1">
          <mxGeometry x="1912.5" y="1100" width="200" height="20" as="geometry" />
        </mxCell>
        <mxCell id="tbtSMGsqEWslULZVBBSR-96" value="+ getLosses (map : integer) : integer " style="text;html=1;align=center;verticalAlign=middle;resizable=0;points=[];autosize=1;" parent="1" vertex="1">
          <mxGeometry x="1912.5" y="1120" width="210" height="20" as="geometry" />
        </mxCell>
        <mxCell id="tbtSMGsqEWslULZVBBSR-97" value="+ incWins () : void " style="text;html=1;align=center;verticalAlign=middle;resizable=0;points=[];autosize=1;" parent="1" vertex="1">
          <mxGeometry x="1915" y="1160" width="110" height="20" as="geometry" />
        </mxCell>
        <mxCell id="tbtSMGsqEWslULZVBBSR-98" value="+ incLosses () : void " style="text;html=1;align=center;verticalAlign=middle;resizable=0;points=[];autosize=1;" parent="1" vertex="1">
          <mxGeometry x="1910" y="1180" width="130" height="20" as="geometry" />
        </mxCell>
        <mxCell id="tbtSMGsqEWslULZVBBSR-99" value="+ getGamesPlayed (map : integer) : integer " style="text;html=1;align=center;verticalAlign=middle;resizable=0;points=[];autosize=1;" parent="1" vertex="1">
          <mxGeometry x="1912.5" y="1140" width="250" height="20" as="geometry" />
        </mxCell>
        <mxCell id="tbtSMGsqEWslULZVBBSR-100" value="+ toString () : void " style="text;html=1;align=center;verticalAlign=middle;resizable=0;points=[];autosize=1;" parent="1" vertex="1">
          <mxGeometry x="1915" y="1200" width="110" height="20" as="geometry" />
        </mxCell>
        <mxCell id="tbtSMGsqEWslULZVBBSR-101" value="&amp;nbsp;&amp;nbsp; - playersLastTwoLocations : integer[][]" style="text;html=1;align=center;verticalAlign=middle;resizable=0;points=[];autosize=1;" parent="1" vertex="1">
          <mxGeometry x="1111.5" y="975" width="230" height="20" as="geometry" />
        </mxCell>
        <mxCell id="tbtSMGsqEWslULZVBBSR-102" value="&amp;nbsp;&amp;nbsp; - playersLocation : [][]" style="text;html=1;align=center;verticalAlign=middle;resizable=0;points=[];autosize=1;" parent="1" vertex="1">
          <mxGeometry x="1111.5" y="955" width="140" height="20" as="geometry" />
        </mxCell>
        <mxCell id="tbtSMGsqEWslULZVBBSR-104" value="&amp;nbsp;&amp;nbsp; + getPlayersLocation() : integer[][]" style="text;html=1;align=center;verticalAlign=middle;resizable=0;points=[];autosize=1;" parent="1" vertex="1">
          <mxGeometry x="1111.5" y="1040" width="210" height="20" as="geometry" />
        </mxCell>
        <mxCell id="tbtSMGsqEWslULZVBBSR-106" value="&amp;nbsp;&amp;nbsp; + getPlayersLastTwoLocation() : integer[][]" style="text;html=1;align=center;verticalAlign=middle;resizable=0;points=[];autosize=1;" parent="1" vertex="1">
          <mxGeometry x="1114" y="1060" width="250" height="20" as="geometry" />
        </mxCell>
        <mxCell id="tbtSMGsqEWslULZVBBSR-107" value="+ Player ()" style="text;html=1;align=center;verticalAlign=middle;resizable=0;points=[];autosize=1;" parent="1" vertex="1">
          <mxGeometry x="1121.5" y="1020" width="70" height="20" as="geometry" />
        </mxCell>
        <mxCell id="tbtSMGsqEWslULZVBBSR-108" value="&amp;nbsp;&amp;nbsp; - updateLastTwoLocations() : void" style="text;html=1;align=center;verticalAlign=middle;resizable=0;points=[];autosize=1;" parent="1" vertex="1">
          <mxGeometry x="1111.5" y="1140" width="210" height="20" as="geometry" />
        </mxCell>
        <mxCell id="tbtSMGsqEWslULZVBBSR-109" value="&amp;nbsp;&amp;nbsp; + drawSilkBag() : Tile" style="text;html=1;align=center;verticalAlign=middle;resizable=0;points=[];autosize=1;" parent="1" vertex="1">
          <mxGeometry x="1114" y="1160" width="140" height="20" as="geometry" />
        </mxCell>
        <mxCell id="tbtSMGsqEWslULZVBBSR-110" value="&amp;nbsp;&amp;nbsp; + getInventory() : Tile[]" style="text;html=1;align=center;verticalAlign=middle;resizable=0;points=[];autosize=1;" parent="1" vertex="1">
          <mxGeometry x="1114" y="1080" width="140" height="20" as="geometry" />
        </mxCell>
        <mxCell id="tbtSMGsqEWslULZVBBSR-111" value="&amp;nbsp;&amp;nbsp; + addToInventory(tile : Tile) : void" style="text;html=1;align=center;verticalAlign=middle;resizable=0;points=[];autosize=1;" parent="1" vertex="1">
          <mxGeometry x="1114" y="1100" width="200" height="20" as="geometry" />
        </mxCell>
        <mxCell id="tbtSMGsqEWslULZVBBSR-112" value="&amp;nbsp;&amp;nbsp; + removeFromInventory(tile : Tile) : void" style="text;html=1;align=center;verticalAlign=middle;resizable=0;points=[];autosize=1;" parent="1" vertex="1">
          <mxGeometry x="1111.5" y="1120" width="240" height="20" as="geometry" />
        </mxCell>
        <mxCell id="tbtSMGsqEWslULZVBBSR-113" value="&amp;nbsp;&amp;nbsp; + playFloorTile() : Tile " style="text;html=1;align=center;verticalAlign=middle;resizable=0;points=[];autosize=1;" parent="1" vertex="1">
          <mxGeometry x="1114" y="1180" width="140" height="20" as="geometry" />
        </mxCell>
        <mxCell id="tbtSMGsqEWslULZVBBSR-114" value="&amp;nbsp;&amp;nbsp; + playActionTile() : Tile" style="text;html=1;align=center;verticalAlign=middle;resizable=0;points=[];autosize=1;" parent="1" vertex="1">
          <mxGeometry x="1111.5" y="1205" width="150" height="20" as="geometry" />
        </mxCell>
        <mxCell id="tbtSMGsqEWslULZVBBSR-115" value="&amp;nbsp;&amp;nbsp; + chooseFloorRotation(direction : string) : void" style="text;html=1;align=center;verticalAlign=middle;resizable=0;points=[];autosize=1;" parent="1" vertex="1">
          <mxGeometry x="1111.5" y="1245" width="280" height="20" as="geometry" />
        </mxCell>
        <mxCell id="tbtSMGsqEWslULZVBBSR-116" value="&amp;nbsp;&amp;nbsp; + playActionTileLocation(x&amp;nbsp; : integer, y : integer) : void" style="text;html=1;align=center;verticalAlign=middle;resizable=0;points=[];autosize=1;" parent="1" vertex="1">
          <mxGeometry x="1111.5" y="1225" width="310" height="20" as="geometry" />
        </mxCell>
        <mxCell id="tbtSMGsqEWslULZVBBSR-117" value="&amp;nbsp;&amp;nbsp; + movePlayer(x : integer, y : integer) : Tile" style="text;html=1;align=center;verticalAlign=middle;resizable=0;points=[];autosize=1;" parent="1" vertex="1">
          <mxGeometry x="1116.5" y="1265" width="240" height="20" as="geometry" />
        </mxCell>
        <mxCell id="hSHP5A7G_jjUeUoypNoO-1" value="" style="rounded=0;whiteSpace=wrap;html=1;align=left;" parent="1" vertex="1">
          <mxGeometry x="282.25" y="1150" width="440" height="135" as="geometry" />
        </mxCell>
        <mxCell id="hSHP5A7G_jjUeUoypNoO-2" value="SilkBag" style="rounded=0;whiteSpace=wrap;html=1;" parent="1" vertex="1">
          <mxGeometry x="282.25" y="1150" width="440" height="50" as="geometry" />
        </mxCell>
        <mxCell id="hSHP5A7G_jjUeUoypNoO-3" value="&lt;div&gt;&lt;br&gt;&lt;/div&gt;&lt;div&gt;&lt;br&gt;&lt;/div&gt;" style="rounded=0;whiteSpace=wrap;html=1;" parent="1" vertex="1">
          <mxGeometry x="282.25" y="1250" width="440" height="100" as="geometry" />
        </mxCell>
        <mxCell id="hSHP5A7G_jjUeUoypNoO-4" value="- allTiles : Tile[]" style="text;html=1;align=center;verticalAlign=middle;resizable=0;points=[];autosize=1;" parent="1" vertex="1">
          <mxGeometry x="281.75" y="1200" width="100" height="20" as="geometry" />
        </mxCell>
        <mxCell id="hSHP5A7G_jjUeUoypNoO-39" value="+ SilkBag ()" style="text;html=1;align=center;verticalAlign=middle;resizable=0;points=[];autosize=1;" parent="1" vertex="1">
          <mxGeometry x="282.75" y="1260" width="80" height="20" as="geometry" />
        </mxCell>
        <mxCell id="hSHP5A7G_jjUeUoypNoO-40" value="+ getRanTile() : Tile" style="text;html=1;align=center;verticalAlign=middle;resizable=0;points=[];autosize=1;" parent="1" vertex="1">
          <mxGeometry x="283.25" y="1280" width="120" height="20" as="geometry" />
        </mxCell>
        <mxCell id="hSHP5A7G_jjUeUoypNoO-41" value="+ removeIfActionTile(actionTile : Tile) : void" style="text;html=1;align=center;verticalAlign=middle;resizable=0;points=[];autosize=1;" parent="1" vertex="1">
          <mxGeometry x="281.75" y="1320" width="250" height="20" as="geometry" />
        </mxCell>
        <mxCell id="hSHP5A7G_jjUeUoypNoO-42" value="" style="rounded=0;whiteSpace=wrap;html=1;align=left;" parent="1" vertex="1">
          <mxGeometry x="253.25" y="1510" width="440" height="135" as="geometry" />
        </mxCell>
        <mxCell id="hSHP5A7G_jjUeUoypNoO-43" value="Tile" style="rounded=0;whiteSpace=wrap;html=1;" parent="1" vertex="1">
          <mxGeometry x="253.25" y="1510" width="440" height="50" as="geometry" />
        </mxCell>
        <mxCell id="hSHP5A7G_jjUeUoypNoO-44" value="" style="rounded=0;whiteSpace=wrap;html=1;" parent="1" vertex="1">
          <mxGeometry x="253.25" y="1605" width="440" height="65" as="geometry" />
        </mxCell>
        <mxCell id="hSHP5A7G_jjUeUoypNoO-45" value="- floorTiles : FloorTiles[]" style="text;html=1;align=center;verticalAlign=middle;resizable=0;points=[];autosize=1;" parent="1" vertex="1">
          <mxGeometry x="254.75" y="1560" width="140" height="20" as="geometry" />
        </mxCell>
        <mxCell id="hSHP5A7G_jjUeUoypNoO-46" value="+ Tile ()" style="text;html=1;align=center;verticalAlign=middle;resizable=0;points=[];autosize=1;" parent="1" vertex="1">
          <mxGeometry x="252.25" y="1605" width="60" height="20" as="geometry" />
        </mxCell>
        <mxCell id="hSHP5A7G_jjUeUoypNoO-47" value="+ giveFloorTile(tile : Tile) : Tile" style="text;html=1;align=center;verticalAlign=middle;resizable=0;points=[];autosize=1;" parent="1" vertex="1">
          <mxGeometry x="251.75" y="1625" width="180" height="20" as="geometry" />
        </mxCell>
        <mxCell id="hSHP5A7G_jjUeUoypNoO-50" value="- getTile(tile : Tile) : Tile" style="text;html=1;align=center;verticalAlign=middle;resizable=0;points=[];autosize=1;" parent="1" vertex="1">
          <mxGeometry x="284.75" y="1300" width="140" height="20" as="geometry" />
        </mxCell>
        <mxCell id="hSHP5A7G_jjUeUoypNoO-51" value="- actionTiles : ActionTiles[]" style="text;html=1;align=center;verticalAlign=middle;resizable=0;points=[];autosize=1;" parent="1" vertex="1">
          <mxGeometry x="252.25" y="1580" width="160" height="20" as="geometry" />
        </mxCell>
        <mxCell id="hSHP5A7G_jjUeUoypNoO-52" value="" style="rounded=0;whiteSpace=wrap;html=1;align=left;" parent="1" vertex="1">
          <mxGeometry x="64.5" y="1855" width="440" height="135" as="geometry" />
        </mxCell>
        <mxCell id="hSHP5A7G_jjUeUoypNoO-53" value="FloorTile" style="rounded=0;whiteSpace=wrap;html=1;" parent="1" vertex="1">
          <mxGeometry x="64.5" y="1855" width="440" height="50" as="geometry" />
        </mxCell>
        <mxCell id="hSHP5A7G_jjUeUoypNoO-54" value="" style="rounded=0;whiteSpace=wrap;html=1;" parent="1" vertex="1">
          <mxGeometry x="64.5" y="1950" width="440" height="130" as="geometry" />
        </mxCell>
        <mxCell id="hSHP5A7G_jjUeUoypNoO-55" value="- name : string" style="text;html=1;align=center;verticalAlign=middle;resizable=0;points=[];autosize=1;" parent="1" vertex="1">
          <mxGeometry x="64.5" y="1905" width="90" height="20" as="geometry" />
        </mxCell>
        <mxCell id="hSHP5A7G_jjUeUoypNoO-56" value="+ FloorTile (name : string, icon : image)" style="text;html=1;align=center;verticalAlign=middle;resizable=0;points=[];autosize=1;" parent="1" vertex="1">
          <mxGeometry x="63" y="1955" width="230" height="20" as="geometry" />
        </mxCell>
        <mxCell id="hSHP5A7G_jjUeUoypNoO-57" value="+ tileRules() : string" style="text;html=1;align=center;verticalAlign=middle;resizable=0;points=[];autosize=1;" parent="1" vertex="1">
          <mxGeometry x="64.5" y="1975" width="120" height="20" as="geometry" />
        </mxCell>
        <mxCell id="hSHP5A7G_jjUeUoypNoO-58" value="- icon : image" style="text;html=1;align=center;verticalAlign=middle;resizable=0;points=[];autosize=1;" parent="1" vertex="1">
          <mxGeometry x="64.5" y="1925" width="90" height="20" as="geometry" />
        </mxCell>
        <mxCell id="hSHP5A7G_jjUeUoypNoO-66" value="+ giveActionTile(tile : Tile) : Tile" style="text;html=1;align=center;verticalAlign=middle;resizable=0;points=[];autosize=1;" parent="1" vertex="1">
          <mxGeometry x="254.75" y="1645" width="180" height="20" as="geometry" />
        </mxCell>
        <mxCell id="hSHP5A7G_jjUeUoypNoO-69" value="+ setName() : void" style="text;html=1;align=center;verticalAlign=middle;resizable=0;points=[];autosize=1;" parent="1" vertex="1">
          <mxGeometry x="60" y="1995" width="120" height="20" as="geometry" />
        </mxCell>
        <mxCell id="hSHP5A7G_jjUeUoypNoO-70" value="+ setIcon() : void" style="text;html=1;align=center;verticalAlign=middle;resizable=0;points=[];autosize=1;" parent="1" vertex="1">
          <mxGeometry x="64.5" y="2015" width="100" height="20" as="geometry" />
        </mxCell>
        <mxCell id="hSHP5A7G_jjUeUoypNoO-71" value="+ getIcon() : image" style="text;html=1;align=center;verticalAlign=middle;resizable=0;points=[];autosize=1;" parent="1" vertex="1">
          <mxGeometry x="60.5" y="2055" width="120" height="20" as="geometry" />
        </mxCell>
        <mxCell id="hSHP5A7G_jjUeUoypNoO-72" value="+ getName() : string" style="text;html=1;align=center;verticalAlign=middle;resizable=0;points=[];autosize=1;" parent="1" vertex="1">
          <mxGeometry x="64.5" y="2035" width="120" height="20" as="geometry" />
        </mxCell>
        <mxCell id="hSHP5A7G_jjUeUoypNoO-95" value="" style="rounded=0;whiteSpace=wrap;html=1;align=left;" parent="1" vertex="1">
          <mxGeometry x="746.25" y="1730" width="440" height="135" as="geometry" />
        </mxCell>
        <mxCell id="hSHP5A7G_jjUeUoypNoO-96" value="ActionTile" style="rounded=0;whiteSpace=wrap;html=1;" parent="1" vertex="1">
          <mxGeometry x="746.25" y="1730" width="440" height="50" as="geometry" />
        </mxCell>
        <mxCell id="hSHP5A7G_jjUeUoypNoO-97" value="" style="rounded=0;whiteSpace=wrap;html=1;" parent="1" vertex="1">
          <mxGeometry x="746.25" y="1825" width="440" height="130" as="geometry" />
        </mxCell>
        <mxCell id="hSHP5A7G_jjUeUoypNoO-98" value="- name : string" style="text;html=1;align=center;verticalAlign=middle;resizable=0;points=[];autosize=1;" parent="1" vertex="1">
          <mxGeometry x="746.25" y="1780" width="90" height="20" as="geometry" />
        </mxCell>
        <mxCell id="hSHP5A7G_jjUeUoypNoO-99" value="+ ActionTile (name : string, icon : image)" style="text;html=1;align=center;verticalAlign=middle;resizable=0;points=[];autosize=1;" parent="1" vertex="1">
          <mxGeometry x="746.25" y="1830" width="230" height="20" as="geometry" />
        </mxCell>
        <mxCell id="hSHP5A7G_jjUeUoypNoO-100" value="+ tileRules() : string" style="text;html=1;align=center;verticalAlign=middle;resizable=0;points=[];autosize=1;" parent="1" vertex="1">
          <mxGeometry x="746.25" y="1850" width="120" height="20" as="geometry" />
        </mxCell>
        <mxCell id="hSHP5A7G_jjUeUoypNoO-101" value="- icon : image" style="text;html=1;align=center;verticalAlign=middle;resizable=0;points=[];autosize=1;" parent="1" vertex="1">
          <mxGeometry x="746.25" y="1800" width="90" height="20" as="geometry" />
        </mxCell>
        <mxCell id="hSHP5A7G_jjUeUoypNoO-102" value="+ setName() : void" style="text;html=1;align=center;verticalAlign=middle;resizable=0;points=[];autosize=1;" parent="1" vertex="1">
          <mxGeometry x="741.75" y="1870" width="120" height="20" as="geometry" />
        </mxCell>
        <mxCell id="hSHP5A7G_jjUeUoypNoO-103" value="+ setIcon() : void" style="text;html=1;align=center;verticalAlign=middle;resizable=0;points=[];autosize=1;" parent="1" vertex="1">
          <mxGeometry x="746.25" y="1890" width="100" height="20" as="geometry" />
        </mxCell>
        <mxCell id="hSHP5A7G_jjUeUoypNoO-104" value="+ getIcon() : image" style="text;html=1;align=center;verticalAlign=middle;resizable=0;points=[];autosize=1;" parent="1" vertex="1">
          <mxGeometry x="742.25" y="1930" width="120" height="20" as="geometry" />
        </mxCell>
        <mxCell id="hSHP5A7G_jjUeUoypNoO-105" value="+ getName() : string" style="text;html=1;align=center;verticalAlign=middle;resizable=0;points=[];autosize=1;" parent="1" vertex="1">
          <mxGeometry x="746.25" y="1910" width="120" height="20" as="geometry" />
        </mxCell>
        <mxCell id="hSHP5A7G_jjUeUoypNoO-106" value="- tiles : Tile" style="text;html=1;align=center;verticalAlign=middle;resizable=0;points=[];autosize=1;" parent="1" vertex="1">
          <mxGeometry x="286.25" y="1220" width="70" height="20" as="geometry" />
        </mxCell>
        <mxCell id="hSHP5A7G_jjUeUoypNoO-108" value="" style="rounded=0;whiteSpace=wrap;html=1;align=left;" parent="1" vertex="1">
          <mxGeometry x="1399" y="425" width="440" height="135" as="geometry" />
        </mxCell>
        <mxCell id="hSHP5A7G_jjUeUoypNoO-109" value="GameData" style="rounded=0;whiteSpace=wrap;html=1;" parent="1" vertex="1">
          <mxGeometry x="1399" y="425" width="440" height="50" as="geometry" />
        </mxCell>
        <mxCell id="hSHP5A7G_jjUeUoypNoO-110" value="" style="rounded=0;whiteSpace=wrap;html=1;" parent="1" vertex="1">
          <mxGeometry x="1399" y="560" width="440" height="120" as="geometry" />
        </mxCell>
        <mxCell id="hSHP5A7G_jjUeUoypNoO-111" value="- players: Players[]" style="text;html=1;align=center;verticalAlign=middle;resizable=0;points=[];autosize=1;" parent="1" vertex="1">
          <mxGeometry x="1398.5" y="475" width="120" height="20" as="geometry" />
        </mxCell>
        <mxCell id="hSHP5A7G_jjUeUoypNoO-112" value="+ GameData (players : Player[], boardState : GameBoard, bagState : Silkbag)" style="text;html=1;align=center;verticalAlign=middle;resizable=0;points=[];autosize=1;" parent="1" vertex="1">
          <mxGeometry x="1398.5" y="570" width="430" height="20" as="geometry" />
        </mxCell>
        <mxCell id="hSHP5A7G_jjUeUoypNoO-113" value="+ updatePlayerLocations() : void" style="text;html=1;align=center;verticalAlign=middle;resizable=0;points=[];autosize=1;" parent="1" vertex="1">
          <mxGeometry x="1398.5" y="590" width="190" height="20" as="geometry" />
        </mxCell>
        <mxCell id="hSHP5A7G_jjUeUoypNoO-114" value="- playerCurrentLocation : integer[][]" style="text;html=1;align=center;verticalAlign=middle;resizable=0;points=[];autosize=1;" parent="1" vertex="1">
          <mxGeometry x="1400" y="495" width="200" height="20" as="geometry" />
        </mxCell>
        <mxCell id="hSHP5A7G_jjUeUoypNoO-115" value="+ savePlayersLocations() : void" style="text;html=1;align=center;verticalAlign=middle;resizable=0;points=[];autosize=1;" parent="1" vertex="1">
          <mxGeometry x="1394.5" y="610" width="190" height="20" as="geometry" />
        </mxCell>
        <mxCell id="hSHP5A7G_jjUeUoypNoO-116" value="+ saveBoardState() : void" style="text;html=1;align=center;verticalAlign=middle;resizable=0;points=[];autosize=1;" parent="1" vertex="1">
          <mxGeometry x="1398.5" y="630" width="150" height="20" as="geometry" />
        </mxCell>
        <mxCell id="hSHP5A7G_jjUeUoypNoO-119" value="- boardState : GameBoard" style="text;html=1;align=center;verticalAlign=middle;resizable=0;points=[];autosize=1;" parent="1" vertex="1">
          <mxGeometry x="1399" y="515" width="160" height="20" as="geometry" />
        </mxCell>
        <mxCell id="hSHP5A7G_jjUeUoypNoO-129" value="- bagState : SilkBag" style="text;html=1;align=center;verticalAlign=middle;resizable=0;points=[];autosize=1;" parent="1" vertex="1">
          <mxGeometry x="1400" y="535" width="120" height="20" as="geometry" />
        </mxCell>
        <mxCell id="hSHP5A7G_jjUeUoypNoO-130" value="+ saveBagState() : void" style="text;html=1;align=center;verticalAlign=middle;resizable=0;points=[];autosize=1;" parent="1" vertex="1">
          <mxGeometry x="1399" y="650" width="140" height="20" as="geometry" />
        </mxCell>
        <mxCell id="hSHP5A7G_jjUeUoypNoO-134" value="" style="rounded=0;whiteSpace=wrap;html=1;align=left;" parent="1" vertex="1">
          <mxGeometry x="1370" y="210" width="440" height="135" as="geometry" />
        </mxCell>
        <mxCell id="hSHP5A7G_jjUeUoypNoO-135" value="FileReader" style="rounded=0;whiteSpace=wrap;html=1;" parent="1" vertex="1">
          <mxGeometry x="1370" y="210" width="440" height="50" as="geometry" />
        </mxCell>
        <mxCell id="hSHP5A7G_jjUeUoypNoO-136" value="" style="rounded=0;whiteSpace=wrap;html=1;" parent="1" vertex="1">
          <mxGeometry x="1370" y="260" width="440" height="90" as="geometry" />
        </mxCell>
        <mxCell id="hSHP5A7G_jjUeUoypNoO-123" value="+ readGameBoard(file : String) : GameBoard" style="text;align=left;verticalAlign=top;spacingLeft=4;spacingRight=4;overflow=hidden;rotatable=0;points=[[0,0.5],[1,0.5]];portConstraint=eastwest;" parent="1" vertex="1">
          <mxGeometry x="1375.5" y="265" width="330" height="26" as="geometry" />
        </mxCell>
        <mxCell id="hSHP5A7G_jjUeUoypNoO-125" value="+ readBagState(file : String): SilkBag" style="text;align=left;verticalAlign=top;spacingLeft=4;spacingRight=4;overflow=hidden;rotatable=0;points=[[0,0.5],[1,0.5]];portConstraint=eastwest;rounded=0;shadow=0;html=0;" parent="1" vertex="1">
          <mxGeometry x="1375.5" y="291" width="330" height="26" as="geometry" />
        </mxCell>
        <mxCell id="hSHP5A7G_jjUeUoypNoO-124" value="+ readPlayerProfile(file: String) : Profile" style="text;align=left;verticalAlign=top;spacingLeft=4;spacingRight=4;overflow=hidden;rotatable=0;points=[[0,0.5],[1,0.5]];portConstraint=eastwest;rounded=0;shadow=0;html=0;" parent="1" vertex="1">
          <mxGeometry x="1375.5" y="319" width="330" height="26" as="geometry" />
        </mxCell>
        <mxCell id="hSHP5A7G_jjUeUoypNoO-146" value="" style="rounded=0;whiteSpace=wrap;html=1;align=left;" parent="1" vertex="1">
          <mxGeometry x="1995.5" y="414" width="440" height="80" as="geometry" />
        </mxCell>
        <mxCell id="hSHP5A7G_jjUeUoypNoO-147" value="LeaderBoard" style="rounded=0;whiteSpace=wrap;html=1;" parent="1" vertex="1">
          <mxGeometry x="1995.5" y="414" width="440" height="50" as="geometry" />
        </mxCell>
        <mxCell id="hSHP5A7G_jjUeUoypNoO-148" value="" style="rounded=0;whiteSpace=wrap;html=1;" parent="1" vertex="1">
          <mxGeometry x="1995.5" y="494" width="440" height="90" as="geometry" />
        </mxCell>
        <mxCell id="hSHP5A7G_jjUeUoypNoO-149" value="- players: PlayerProfile[]" style="text;html=1;align=center;verticalAlign=middle;resizable=0;points=[];autosize=1;" parent="1" vertex="1">
          <mxGeometry x="2000" y="469" width="140" height="20" as="geometry" />
        </mxCell>
        <mxCell id="hSHP5A7G_jjUeUoypNoO-151" value="+ updateLeaderBoard(mapNumber : integer) : void" style="text;html=1;align=center;verticalAlign=middle;resizable=0;points=[];autosize=1;" parent="1" vertex="1">
          <mxGeometry x="1991" y="514" width="290" height="20" as="geometry" />
        </mxCell>
        <mxCell id="hSHP5A7G_jjUeUoypNoO-153" value="+ displayLeaderBoard(mapNumber : integer) : void" style="text;html=1;align=center;verticalAlign=middle;resizable=0;points=[];autosize=1;" parent="1" vertex="1">
          <mxGeometry x="1991" y="534" width="290" height="20" as="geometry" />
        </mxCell>
        <mxCell id="hSHP5A7G_jjUeUoypNoO-158" value="+ showPositions() : void" style="text;html=1;align=center;verticalAlign=middle;resizable=0;points=[];autosize=1;" parent="1" vertex="1">
          <mxGeometry x="1990" y="554" width="150" height="20" as="geometry" />
        </mxCell>
        <mxCell id="hSHP5A7G_jjUeUoypNoO-159" value="+ LeaderBoard (players : PlayerProfile)" style="text;html=1;align=center;verticalAlign=middle;resizable=0;points=[];autosize=1;" parent="1" vertex="1">
          <mxGeometry x="1990" y="494" width="230" height="20" as="geometry" />
        </mxCell>
        <mxCell id="qz4qs4xUjp2j3CvehREg-14" value="" style="triangle;whiteSpace=wrap;html=1;rotation=-90;" parent="1" vertex="1">
          <mxGeometry x="400" y="1663.25" width="13" height="26.5" as="geometry" />
        </mxCell>
        <mxCell id="qz4qs4xUjp2j3CvehREg-15" value="" style="triangle;whiteSpace=wrap;html=1;rotation=-180;" parent="1" vertex="1">
          <mxGeometry x="693.25" y="1575" width="14.5" height="20" as="geometry" />
        </mxCell>
        <mxCell id="qz4qs4xUjp2j3CvehREg-17" value="" style="endArrow=none;html=1;entryX=0;entryY=0.5;entryDx=0;entryDy=0;" parent="1" target="qz4qs4xUjp2j3CvehREg-14" edge="1">
          <mxGeometry width="50" height="50" relative="1" as="geometry">
            <mxPoint x="404.75" y="1855" as="sourcePoint" />
            <mxPoint x="454.75" y="1805" as="targetPoint" />
          </mxGeometry>
        </mxCell>
        <mxCell id="qz4qs4xUjp2j3CvehREg-18" value="" style="endArrow=none;html=1;" parent="1" edge="1">
          <mxGeometry width="50" height="50" relative="1" as="geometry">
            <mxPoint x="976.7499999999999" y="1730" as="sourcePoint" />
            <mxPoint x="707.75" y="1583" as="targetPoint" />
            <Array as="points">
              <mxPoint x="976.7499999999999" y="1585" />
            </Array>
          </mxGeometry>
        </mxCell>
        <mxCell id="qz4qs4xUjp2j3CvehREg-32" value="" style="endArrow=none;html=1;exitX=1.008;exitY=0.436;exitDx=0;exitDy=0;exitPerimeter=0;" parent="1" source="tbtSMGsqEWslULZVBBSR-51" target="qz4qs4xUjp2j3CvehREg-33" edge="1">
          <mxGeometry width="50" height="50" relative="1" as="geometry">
            <mxPoint x="1559" y="1100" as="sourcePoint" />
            <mxPoint x="1860" y="1060" as="targetPoint" />
            <Array as="points">
              <mxPoint x="1630" y="1137" />
              <mxPoint x="1630" y="1060" />
            </Array>
          </mxGeometry>
        </mxCell>
        <mxCell id="qz4qs4xUjp2j3CvehREg-33" value="" style="triangle;whiteSpace=wrap;html=1;rotation=0;" parent="1" vertex="1">
          <mxGeometry x="1898" y="1050" width="14.5" height="20" as="geometry" />
        </mxCell>
        <mxCell id="qz4qs4xUjp2j3CvehREg-60" value="" style="endArrow=none;html=1;entryX=0.449;entryY=1;entryDx=0;entryDy=0;entryPerimeter=0;" parent="1" source="qz4qs4xUjp2j3CvehREg-61" target="hSHP5A7G_jjUeUoypNoO-3" edge="1">
          <mxGeometry width="50" height="50" relative="1" as="geometry">
            <mxPoint x="480" y="1450" as="sourcePoint" />
            <mxPoint x="480" y="1390" as="targetPoint" />
            <Array as="points" />
          </mxGeometry>
        </mxCell>
        <mxCell id="qz4qs4xUjp2j3CvehREg-61" value="" style="shape=umlDestroy;whiteSpace=wrap;html=1;strokeWidth=3;" parent="1" vertex="1">
          <mxGeometry x="470" y="1360" width="20" height="20" as="geometry" />
        </mxCell>
        <mxCell id="D1GEcSYVcF62mAIZb0Rs-14" value="" style="endArrow=diamondThin;endFill=1;endSize=24;html=1;entryX=0.517;entryY=-0.056;entryDx=0;entryDy=0;entryPerimeter=0;exitX=0.45;exitY=0.68;exitDx=0;exitDy=0;exitPerimeter=0;" parent="1" source="qz4qs4xUjp2j3CvehREg-61" target="hSHP5A7G_jjUeUoypNoO-43" edge="1">
          <mxGeometry width="160" relative="1" as="geometry">
            <mxPoint x="480" y="1390" as="sourcePoint" />
            <mxPoint x="550" y="1450" as="targetPoint" />
          </mxGeometry>
        </mxCell>
        <mxCell id="D1GEcSYVcF62mAIZb0Rs-16" value="" style="endArrow=open;endFill=1;endSize=12;html=1;entryX=1.005;entryY=0.303;entryDx=0;entryDy=0;entryPerimeter=0;" parent="1" source="tbtSMGsqEWslULZVBBSR-108" target="hSHP5A7G_jjUeUoypNoO-3" edge="1">
          <mxGeometry width="160" relative="1" as="geometry">
            <mxPoint x="1090" y="1150" as="sourcePoint" />
            <mxPoint x="720" y="1280" as="targetPoint" />
            <Array as="points">
              <mxPoint x="1000" y="1150" />
              <mxPoint x="1000" y="1280" />
            </Array>
          </mxGeometry>
        </mxCell>
        <mxCell id="D1GEcSYVcF62mAIZb0Rs-19" value="" style="endArrow=diamondThin;endFill=1;endSize=24;html=1;entryX=0.019;entryY=-0.083;entryDx=0;entryDy=0;entryPerimeter=0;" parent="1" edge="1">
          <mxGeometry width="160" relative="1" as="geometry">
            <mxPoint x="230" y="670" as="sourcePoint" />
            <mxPoint x="648.0000000000002" y="476.94000000000017" as="targetPoint" />
            <Array as="points">
              <mxPoint x="230" y="477" />
            </Array>
          </mxGeometry>
        </mxCell>
        <mxCell id="D1GEcSYVcF62mAIZb0Rs-20" value="" style="endArrow=diamondThin;endFill=0;endSize=24;html=1;exitX=0.273;exitY=1.005;exitDx=0;exitDy=0;exitPerimeter=0;entryX=-0.002;entryY=0.017;entryDx=0;entryDy=0;entryPerimeter=0;" parent="1" target="tbtSMGsqEWslULZVBBSR-51" edge="1">
          <mxGeometry width="160" relative="1" as="geometry">
            <mxPoint x="954.4700000000003" y="620.005" as="sourcePoint" />
            <mxPoint x="1090" y="1000" as="targetPoint" />
            <Array as="points">
              <mxPoint x="954" y="1020" />
            </Array>
          </mxGeometry>
        </mxCell>
        <mxCell id="D1GEcSYVcF62mAIZb0Rs-21" value="" style="endArrow=diamondThin;endFill=0;endSize=24;html=1;entryX=1;entryY=0.75;entryDx=0;entryDy=0;" parent="1" edge="1">
          <mxGeometry width="160" relative="1" as="geometry">
            <mxPoint x="1380" y="590" as="sourcePoint" />
            <mxPoint x="722.25" y="1216.83" as="targetPoint" />
            <Array as="points">
              <mxPoint x="1370" y="590" />
              <mxPoint x="1370" y="670" />
              <mxPoint x="859" y="670" />
              <mxPoint x="859" y="1217.33" />
            </Array>
          </mxGeometry>
        </mxCell>
        <mxCell id="D1GEcSYVcF62mAIZb0Rs-22" value="" style="endArrow=diamondThin;endFill=0;endSize=24;html=1;" parent="1" edge="1">
          <mxGeometry width="160" relative="1" as="geometry">
            <mxPoint x="1380" y="516" as="sourcePoint" />
            <mxPoint x="1293" y="429" as="targetPoint" />
            <Array as="points">
              <mxPoint x="1360" y="516" />
              <mxPoint x="1360" y="430" />
            </Array>
          </mxGeometry>
        </mxCell>
        <mxCell id="D1GEcSYVcF62mAIZb0Rs-23" value="" style="endArrow=open;endFill=1;endSize=12;html=1;exitX=0.313;exitY=1.019;exitDx=0;exitDy=0;exitPerimeter=0;" parent="1" source="hSHP5A7G_jjUeUoypNoO-136" edge="1">
          <mxGeometry width="160" relative="1" as="geometry">
            <mxPoint x="1460.5" y="393.57" as="sourcePoint" />
            <mxPoint x="1600" y="420" as="targetPoint" />
            <Array as="points">
              <mxPoint x="1508" y="400" />
              <mxPoint x="1600" y="400" />
            </Array>
          </mxGeometry>
        </mxCell>
        <mxCell id="D1GEcSYVcF62mAIZb0Rs-25" value="" style="endArrow=diamondThin;endFill=0;endSize=24;html=1;entryX=0.468;entryY=-0.043;entryDx=0;entryDy=0;entryPerimeter=0;" parent="1" source="D1GEcSYVcF62mAIZb0Rs-33" target="tbtSMGsqEWslULZVBBSR-83" edge="1">
          <mxGeometry width="160" relative="1" as="geometry">
            <mxPoint x="2230" y="620" as="sourcePoint" />
            <mxPoint x="2130" y="820" as="targetPoint" />
            <Array as="points">
              <mxPoint x="2230" y="730" />
              <mxPoint x="2120" y="730" />
            </Array>
          </mxGeometry>
        </mxCell>
        <mxCell id="D1GEcSYVcF62mAIZb0Rs-26" value="" style="endArrow=diamondThin;endFill=0;endSize=24;html=1;entryX=0.658;entryY=-0.033;entryDx=0;entryDy=0;entryPerimeter=0;" parent="1" target="tbtSMGsqEWslULZVBBSR-50" edge="1">
          <mxGeometry width="160" relative="1" as="geometry">
            <mxPoint x="1593" y="700" as="sourcePoint" />
            <mxPoint x="1407.6599999999996" y="747.9999999999998" as="targetPoint" />
            <Array as="points">
              <mxPoint x="1593" y="820" />
              <mxPoint x="1475" y="820" />
              <mxPoint x="1408" y="820" />
            </Array>
          </mxGeometry>
        </mxCell>
        <mxCell id="D1GEcSYVcF62mAIZb0Rs-29" value="" style="endArrow=open;html=1;endSize=12;startArrow=diamondThin;startSize=14;startFill=1;edgeStyle=orthogonalEdgeStyle;align=left;verticalAlign=bottom;entryX=0.525;entryY=1.038;entryDx=0;entryDy=0;entryPerimeter=0;exitX=0.007;exitY=-0.333;exitDx=0;exitDy=0;exitPerimeter=0;" parent="1" source="tbtSMGsqEWslULZVBBSR-110" target="tbtSMGsqEWslULZVBBSR-5" edge="1">
          <mxGeometry x="-1" y="3" relative="1" as="geometry">
            <mxPoint x="600" y="1040" as="sourcePoint" />
            <mxPoint x="517.25" y="1040" as="targetPoint" />
            <Array as="points">
              <mxPoint x="308" y="1073" />
            </Array>
          </mxGeometry>
        </mxCell>
        <mxCell id="D1GEcSYVcF62mAIZb0Rs-33" value="" style="shape=umlDestroy;whiteSpace=wrap;html=1;strokeWidth=3;" parent="1" vertex="1">
          <mxGeometry x="2220" y="585" width="20" height="15" as="geometry" />
        </mxCell>
        <mxCell id="D1GEcSYVcF62mAIZb0Rs-35" value="" style="shape=umlDestroy;whiteSpace=wrap;html=1;strokeWidth=3;" parent="1" vertex="1">
          <mxGeometry x="1584.5" y="680" width="20" height="15" as="geometry" />
        </mxCell>
        <mxCell id="D1GEcSYVcF62mAIZb0Rs-36" value="" style="shape=umlDestroy;whiteSpace=wrap;html=1;strokeWidth=3;rotation=90;" parent="1" vertex="1">
          <mxGeometry x="1380" y="514" width="20" height="11.5" as="geometry" />
        </mxCell>
        <mxCell id="D1GEcSYVcF62mAIZb0Rs-37" value="" style="shape=umlDestroy;whiteSpace=wrap;html=1;strokeWidth=3;rotation=90;" parent="1" vertex="1">
          <mxGeometry x="1380" y="581" width="18.5" height="14" as="geometry" />
        </mxCell>
        <mxCell id="D1GEcSYVcF62mAIZb0Rs-38" value="&lt;div&gt;2..4&lt;/div&gt;" style="text;html=1;strokeColor=none;fillColor=none;align=center;verticalAlign=middle;whiteSpace=wrap;rounded=0;" parent="1" vertex="1">
          <mxGeometry x="1030" y="1050" width="72.75" height="20" as="geometry" />
        </mxCell>
        <mxCell id="D1GEcSYVcF62mAIZb0Rs-39" value="&lt;div&gt;&lt;br&gt;&lt;/div&gt;&lt;div&gt;2..4&lt;/div&gt;" style="text;html=1;strokeColor=none;fillColor=none;align=center;verticalAlign=middle;whiteSpace=wrap;rounded=0;" parent="1" vertex="1">
          <mxGeometry x="2145" y="785" width="40" height="30" as="geometry" />
        </mxCell>
        <mxCell id="D1GEcSYVcF62mAIZb0Rs-41" value="" style="triangle;whiteSpace=wrap;html=1;fillColor=#000000;rotation=-1;" parent="1" vertex="1">
          <mxGeometry x="1030" y="1050" width="20" height="20" as="geometry" />
        </mxCell>
        <mxCell id="D1GEcSYVcF62mAIZb0Rs-42" value="Represents" style="text;html=1;align=center;verticalAlign=middle;resizable=0;points=[];autosize=1;" parent="1" vertex="1">
          <mxGeometry x="1000" y="1030" width="80" height="20" as="geometry" />
        </mxCell>
        <mxCell id="D1GEcSYVcF62mAIZb0Rs-44" value="" style="endArrow=diamondThin;endFill=1;endSize=24;html=1;exitX=0.4;exitY=1.001;exitDx=0;exitDy=0;exitPerimeter=0;" parent="1" source="tbtSMGsqEWslULZVBBSR-16" edge="1">
          <mxGeometry width="160" relative="1" as="geometry">
            <mxPoint x="883" y="803.5699999999999" as="sourcePoint" />
            <mxPoint x="700" y="1540" as="targetPoint" />
            <Array as="points">
              <mxPoint x="906" y="1540" />
              <mxPoint x="890" y="1540" />
            </Array>
          </mxGeometry>
        </mxCell>
        <mxCell id="D1GEcSYVcF62mAIZb0Rs-45" value="" style="triangle;whiteSpace=wrap;html=1;fillColor=#000000;rotation=-180;" parent="1" vertex="1">
          <mxGeometry x="758" y="1500" width="20" height="20" as="geometry" />
        </mxCell>
        <mxCell id="D1GEcSYVcF62mAIZb0Rs-46" value="is made up of" style="text;html=1;align=center;verticalAlign=middle;resizable=0;points=[];autosize=1;" parent="1" vertex="1">
          <mxGeometry x="733" y="1480" width="90" height="20" as="geometry" />
        </mxCell>
        <mxCell id="D1GEcSYVcF62mAIZb0Rs-47" value="1..*" style="text;html=1;align=center;verticalAlign=middle;resizable=0;points=[];autosize=1;" parent="1" vertex="1">
          <mxGeometry x="755" y="1520" width="30" height="20" as="geometry" />
        </mxCell>
        <mxCell id="D1GEcSYVcF62mAIZb0Rs-48" value="is made up of" style="text;html=1;align=center;verticalAlign=middle;resizable=0;points=[];autosize=1;" parent="1" vertex="1">
          <mxGeometry x="1021.5" y="950" width="90" height="20" as="geometry" />
        </mxCell>
        <mxCell id="D1GEcSYVcF62mAIZb0Rs-49" value="" style="triangle;whiteSpace=wrap;html=1;fillColor=#000000;rotation=0;" parent="1" vertex="1">
          <mxGeometry x="1060" y="970" width="20" height="20" as="geometry" />
        </mxCell>
        <mxCell id="D1GEcSYVcF62mAIZb0Rs-50" value="2..4" style="text;html=1;align=center;verticalAlign=middle;resizable=0;points=[];autosize=1;" parent="1" vertex="1">
          <mxGeometry x="1050" y="990" width="40" height="20" as="geometry" />
        </mxCell>
        <mxCell id="D1GEcSYVcF62mAIZb0Rs-51" value="" style="triangle;whiteSpace=wrap;html=1;fillColor=#000000;rotation=-180;" parent="1" vertex="1">
          <mxGeometry x="755" y="1245" width="20" height="20" as="geometry" />
        </mxCell>
        <mxCell id="D1GEcSYVcF62mAIZb0Rs-52" value="requests from" style="text;html=1;align=center;verticalAlign=middle;resizable=0;points=[];autosize=1;" parent="1" vertex="1">
          <mxGeometry x="723" y="1225" width="90" height="20" as="geometry" />
        </mxCell>
        <mxCell id="D1GEcSYVcF62mAIZb0Rs-53" value="1..*" style="text;html=1;align=center;verticalAlign=middle;resizable=0;points=[];autosize=1;" parent="1" vertex="1">
          <mxGeometry x="758" y="1265" width="30" height="20" as="geometry" />
        </mxCell>
        <mxCell id="D1GEcSYVcF62mAIZb0Rs-54" value="" style="triangle;whiteSpace=wrap;html=1;fillColor=#000000;rotation=90;" parent="1" vertex="1">
          <mxGeometry x="2155" y="775" width="20" height="15" as="geometry" />
        </mxCell>
        <mxCell id="D1GEcSYVcF62mAIZb0Rs-55" value="is made up of " style="text;html=1;align=center;verticalAlign=middle;resizable=0;points=[];autosize=1;" parent="1" vertex="1">
          <mxGeometry x="2122.5" y="750" width="90" height="20" as="geometry" />
        </mxCell>
        <mxCell id="D1GEcSYVcF62mAIZb0Rs-56" value="" style="triangle;whiteSpace=wrap;html=1;fillColor=#000000;rotation=90;" parent="1" vertex="1">
          <mxGeometry x="2085" y="775" width="20" height="15" as="geometry" />
        </mxCell>
        <mxCell id="D1GEcSYVcF62mAIZb0Rs-57" value="&lt;div&gt;represents number &lt;br&gt;&lt;/div&gt;&lt;div&gt;of maps&lt;/div&gt;" style="text;html=1;align=center;verticalAlign=middle;resizable=0;points=[];autosize=1;" parent="1" vertex="1">
          <mxGeometry x="2002.5" y="740" width="120" height="30" as="geometry" />
        </mxCell>
        <mxCell id="D1GEcSYVcF62mAIZb0Rs-58" value="1..*" style="text;html=1;align=center;verticalAlign=middle;resizable=0;points=[];autosize=1;" parent="1" vertex="1">
          <mxGeometry x="2080" y="795" width="30" height="20" as="geometry" />
        </mxCell>
      </root>
    </mxGraphModel>
  </diagram>
</mxfile>
